<?xml version="1.0" encoding="UTF-8" standalone="no"?>
<!DOCTYPE svg PUBLIC "-//W3C//DTD SVG 1.1//EN" "http://www.w3.org/Graphics/SVG/1.1/DTD/svg11.dtd">
<svg width="100%" height="100%" viewBox="0 0 1050 1050" version="1.1" xmlns="http://www.w3.org/2000/svg" xmlns:xlink="http://www.w3.org/1999/xlink" xml:space="preserve" xmlns:serif="http://www.serif.com/" style="fill-rule:evenodd;clip-rule:evenodd;stroke-linejoin:round;stroke-miterlimit:2;">
    <g transform="matrix(5.55556,0,0,5.55556,0,0)">
        <g transform="matrix(5.55556,0,0,5.55556,0,0)">
            <g transform="matrix(2.125,0,0,2.125,0,0.000130668)">
                <path d="M4,10C4,9.451 4.451,9 5,9C5.549,9 6,9.451 6,10L6,12C6,12.549 5.549,13 5,13C4.451,13 4,12.549 4,12L4,10ZM7,10C7,9.451 7.451,9 8,9C8.549,9 9,9.451 9,10L9,12C9,12.549 8.549,13 8,13C7.451,13 7,12.549 7,12L7,10ZM10,10C10,9.451 10.451,9 11,9C11.549,9 12,9.451 12,10L12,12C12,12.549 11.549,13 11,13C10.451,13 10,12.549 10,12L10,10Z" style="fill:white;fill-rule:nonzero;"/>
            </g>
            <g transform="matrix(2.125,0,0,2.125,0,0.000130668)">
                <path d="M5.757,1.071C5.908,1.161 6,1.324 6,1.5C6,1.59 5.976,1.679 5.929,1.757L3.383,6L12.617,6L10.07,1.757C10.023,1.679 9.999,1.591 9.999,1.5C9.999,1.226 10.225,1 10.499,1C10.675,1 10.838,1.092 10.928,1.243L13.783,6L15.5,6C15.774,6 16,6.226 16,6.5L16,7.5C16,7.774 15.774,8 15.5,8L14.877,8L13.033,14.456C12.941,14.777 12.645,15 12.311,15L3.69,15C3.356,15 3.06,14.777 2.968,14.456L1.123,8L0.5,8C0.226,8 0,7.774 0,7.5L0,6.5C-0,6.226 0.226,6 0.5,6L2.217,6L5.07,1.243C5.16,1.092 5.323,1 5.499,1C5.589,1 5.678,1.024 5.756,1.071L5.757,1.071ZM2.163,8L3.877,14L12.123,14L13.837,8L2.163,8Z" style="fill:white;fill-rule:nonzero;"/>
            </g>
        </g>
    </g>
</svg>
