<?xml version="1.0" encoding="UTF-8" standalone="no"?>
<!DOCTYPE svg PUBLIC "-//W3C//DTD SVG 1.1//EN" "http://www.w3.org/Graphics/SVG/1.1/DTD/svg11.dtd">
<svg width="100%" height="100%" viewBox="0 0 1050 1050" version="1.1" xmlns="http://www.w3.org/2000/svg" xmlns:xlink="http://www.w3.org/1999/xlink" xml:space="preserve" xmlns:serif="http://www.serif.com/" style="fill-rule:evenodd;clip-rule:evenodd;stroke-linejoin:round;stroke-miterlimit:2;">
    <g transform="matrix(5.55556,0,0,5.55556,0,0)">
        <g transform="matrix(11.8056,0,0,11.8056,0,2.34235e-31)">
            <g>
                <path d="M10.5,3.5C10.5,2.129 9.371,1 8,1C6.629,1 5.5,2.129 5.5,3.5L5.5,4L10.5,4L10.5,3.5ZM11.5,3.5L11.5,4L15,4L15,14C15,15.097 14.097,16 13,16L3,16C1.903,16 1,15.097 1,14L1,4L4.5,4L4.5,3.5C4.5,1.58 6.08,0 8,0C9.92,-0 11.5,1.58 11.5,3.5ZM14,14L14,5L2,5L2,14C2,14.549 2.451,15 3,15L13,15C13.549,15 14,14.549 14,14ZM8,7.993C9.664,6.282 13.825,9.276 8,13.125C2.175,9.275 6.336,6.282 8,7.993Z" style="fill:white;"/>
            </g>
        </g>
    </g>
</svg>
