<?xml version="1.0" encoding="UTF-8" standalone="no"?>
<!DOCTYPE svg PUBLIC "-//W3C//DTD SVG 1.1//EN" "http://www.w3.org/Graphics/SVG/1.1/DTD/svg11.dtd">
<svg width="100%" height="100%" viewBox="0 0 1223 223" version="1.1" xmlns="http://www.w3.org/2000/svg" xmlns:xlink="http://www.w3.org/1999/xlink" xml:space="preserve" xmlns:serif="http://www.serif.com/" style="fill-rule:evenodd;clip-rule:evenodd;stroke-linecap:round;stroke-linejoin:round;stroke-miterlimit:1.5;">
    <g transform="matrix(5.55556,0,0,5.55556,0,0)">
        <g transform="matrix(1.94023,0,0,1.94023,-1.54969,-9.05045)">
            <g transform="matrix(0.965849,0,0,0.965849,0.0272859,0.502824)">
                <g transform="matrix(0.880003,0,0,0.880003,0.0958664,1.7964)">
                    <path d="M6.969,21.822L0.799,21.822L0.799,8.084L6.749,8.084L6.749,10.819L4.373,10.819L4.373,13.435L6.609,13.435L6.609,16.051L4.373,16.051L4.373,19.086L6.969,19.086L6.969,21.822Z" style="fill:rgb(176,176,176);fill-rule:nonzero;"/>
                </g>
                <g transform="matrix(0.880003,0,0,0.880003,0.0958664,1.7964)">
                    <path d="M16.074,8.084L13.478,16.85L13.478,21.822L10.144,21.822L10.144,16.85L7.648,8.084L10.942,8.084C11.262,9.828 11.435,10.799 11.462,10.999C11.608,11.958 11.721,12.789 11.801,13.495C11.974,12.284 12.16,11.159 12.36,10.12C12.493,9.442 12.633,8.763 12.779,8.084L16.074,8.084Z" style="fill:rgb(176,176,176);fill-rule:nonzero;"/>
                </g>
                <g transform="matrix(0.880003,0,0,0.880003,0.0958664,1.7964)">
                    <path d="M25.379,16.111C25.379,17.362 25.359,18.244 25.319,18.757C25.279,19.269 25.18,19.698 25.02,20.044C24.727,20.683 24.264,21.146 23.632,21.432C23,21.718 22.211,21.862 21.266,21.862C20.321,21.862 19.532,21.718 18.9,21.432C18.267,21.146 17.798,20.683 17.492,20.044C17.345,19.738 17.249,19.289 17.202,18.697C17.156,18.104 17.132,17.242 17.132,16.111L17.132,13.775C17.132,12.523 17.152,11.641 17.192,11.129C17.232,10.616 17.332,10.187 17.492,9.841C17.798,9.215 18.257,8.769 18.87,8.503C19.482,8.237 20.281,8.104 21.266,8.104C22.251,8.104 23.046,8.233 23.652,8.493C24.258,8.753 24.714,9.202 25.02,9.841C25.166,10.16 25.263,10.616 25.309,11.209C25.356,11.801 25.379,12.656 25.379,13.775L25.379,16.111ZM21.805,18.427L21.805,11.299C21.805,10.873 21.775,10.566 21.715,10.38C21.655,10.194 21.505,10.1 21.266,10.1C21.026,10.1 20.873,10.204 20.807,10.41C20.74,10.616 20.707,11.019 20.707,11.618L20.707,18.667C20.707,19.026 20.74,19.306 20.807,19.505C20.873,19.705 21.02,19.805 21.246,19.805C21.619,19.805 21.805,19.346 21.805,18.427Z" style="fill:rgb(176,176,176);fill-rule:nonzero;"/>
                </g>
                <g transform="matrix(0.880003,0,0,0.880003,0.0958664,1.7964)">
                    <path d="M35.163,16.111C35.163,17.362 35.143,18.244 35.104,18.757C35.064,19.269 34.964,19.698 34.804,20.044C34.511,20.683 34.049,21.146 33.416,21.432C32.784,21.718 31.995,21.862 31.05,21.862C30.105,21.862 29.316,21.718 28.684,21.432C28.052,21.146 27.582,20.683 27.276,20.044C27.13,19.738 27.033,19.289 26.987,18.697C26.94,18.104 26.917,17.242 26.917,16.111L26.917,13.775C26.917,12.523 26.937,11.641 26.977,11.129C27.017,10.616 27.116,10.187 27.276,9.841C27.582,9.215 28.042,8.769 28.654,8.503C29.266,8.237 30.065,8.104 31.05,8.104C32.035,8.104 32.831,8.233 33.436,8.493C34.042,8.753 34.498,9.202 34.804,9.841C34.95,10.16 35.047,10.616 35.094,11.209C35.14,11.801 35.163,12.656 35.163,13.775L35.163,16.111ZM31.589,18.427L31.589,11.299C31.589,10.873 31.559,10.566 31.499,10.38C31.439,10.194 31.29,10.1 31.05,10.1C30.81,10.1 30.657,10.204 30.591,10.41C30.524,10.616 30.491,11.019 30.491,11.618L30.491,18.667C30.491,19.026 30.524,19.306 30.591,19.505C30.657,19.705 30.804,19.805 31.03,19.805C31.403,19.805 31.589,19.346 31.589,18.427Z" style="fill:rgb(176,176,176);fill-rule:nonzero;"/>
                </g>
                <g transform="matrix(0.880003,0,0,0.880003,0.0958664,1.7964)">
                    <path d="M48.023,21.822L44.908,21.822L44.908,12.537L43.45,21.822L41.234,21.822L39.736,12.736L39.736,21.822L36.621,21.822L36.621,8.084L41.413,8.084C41.56,9.122 41.673,9.934 41.753,10.52C42.006,12.304 42.199,13.628 42.332,14.493C42.452,13.801 42.585,12.903 42.731,11.798C42.824,11.106 42.924,10.254 43.031,9.242C43.071,8.856 43.111,8.47 43.151,8.084L48.023,8.084L48.023,21.822Z" style="fill:rgb(176,176,176);fill-rule:nonzero;"/>
                </g>
            </g>
            <g transform="matrix(0.595389,0,0,0.595389,-8.56511,5.23971)">
                <path d="M89.947,6.405L98.569,6.405L98.569,10.384L95.118,10.384L95.118,14.155L98.348,14.155L98.348,17.938L95.118,17.938L95.118,22.31L98.913,22.31L98.913,26.29L89.947,26.29L89.947,6.405Z" style="fill:white;fill-rule:nonzero;"/>
                <path d="M105.57,6.405L105.57,22.31L108.714,22.31L108.714,26.29L100.399,26.29L100.399,6.405L105.57,6.405Z" style="fill:white;fill-rule:nonzero;"/>
                <path d="M109.967,6.405L118.589,6.405L118.589,10.384L115.137,10.384L115.137,14.155L118.367,14.155L118.367,17.938L115.137,17.938L115.137,22.31L118.932,22.31L118.932,26.29L109.967,26.29L109.967,6.405Z" style="fill:white;fill-rule:nonzero;"/>
                <path d="M132.492,15.076L127.321,15.076L127.321,11.613C127.321,10.605 127.266,9.977 127.155,9.727C127.045,9.478 126.801,9.353 126.425,9.353C125.999,9.353 125.729,9.504 125.614,9.807C125.499,10.11 125.442,10.765 125.442,11.772L125.442,21.008C125.442,21.974 125.499,22.605 125.614,22.9C125.729,23.195 125.986,23.342 126.388,23.342C126.773,23.342 127.024,23.195 127.143,22.9C127.262,22.605 127.321,21.913 127.321,20.824L127.321,18.331L132.492,18.331L132.492,19.105C132.492,21.16 132.347,22.617 132.056,23.477C131.765,24.337 131.122,25.09 130.128,25.737C129.133,26.384 127.907,26.707 126.449,26.707C124.934,26.707 123.686,26.433 122.703,25.884C121.72,25.336 121.07,24.576 120.75,23.606C120.431,22.636 120.271,21.176 120.271,19.227L120.271,13.418C120.271,11.985 120.32,10.91 120.419,10.194C120.517,9.478 120.81,8.788 121.297,8.124C121.784,7.461 122.459,6.939 123.323,6.558C124.187,6.178 125.18,5.987 126.302,5.987C127.825,5.987 129.082,6.282 130.072,6.872C131.063,7.461 131.714,8.196 132.025,9.076C132.336,9.957 132.492,11.326 132.492,13.185L132.492,15.076Z" style="fill:white;fill-rule:nonzero;"/>
                <path d="M144.762,6.405L144.762,10.384L141.691,10.384L141.691,26.29L136.52,26.29L136.52,10.384L133.462,10.384L133.462,6.405L144.762,6.405Z" style="fill:white;fill-rule:nonzero;"/>
                <path d="M145.941,6.405L149.601,6.405C152.041,6.405 153.693,6.499 154.557,6.687C155.42,6.876 156.125,7.357 156.669,8.131C157.214,8.904 157.486,10.139 157.486,11.834C157.486,13.381 157.293,14.421 156.909,14.953C156.524,15.485 155.766,15.805 154.636,15.911C155.66,16.165 156.348,16.505 156.7,16.931C157.052,17.356 157.271,17.747 157.357,18.104C157.443,18.46 157.486,19.44 157.486,21.045L157.486,26.29L152.684,26.29L152.684,19.682C152.684,18.617 152.6,17.958 152.432,17.704C152.264,17.451 151.824,17.324 151.111,17.324L151.111,26.29L145.941,26.29L145.941,6.405ZM151.111,9.807L151.111,14.229C151.693,14.229 152.1,14.149 152.334,13.989C152.567,13.829 152.684,13.312 152.684,12.435L152.684,11.342C152.684,10.712 152.571,10.298 152.346,10.102C152.121,9.905 151.709,9.807 151.111,9.807Z" style="fill:white;fill-rule:nonzero;"/>
                <path d="M171.303,18.048C171.303,20.046 171.256,21.461 171.162,22.292C171.068,23.123 170.773,23.882 170.278,24.57C169.782,25.258 169.113,25.786 168.269,26.154C167.426,26.523 166.444,26.707 165.322,26.707C164.257,26.707 163.301,26.533 162.454,26.185C161.606,25.837 160.925,25.315 160.409,24.619C159.893,23.923 159.586,23.166 159.488,22.347C159.39,21.528 159.34,20.095 159.34,18.048L159.34,14.646C159.34,12.648 159.387,11.234 159.482,10.403C159.576,9.572 159.871,8.812 160.366,8.124C160.861,7.437 161.531,6.909 162.374,6.54C163.217,6.172 164.2,5.987 165.322,5.987C166.386,5.987 167.342,6.161 168.19,6.509C169.037,6.857 169.719,7.379 170.235,8.075C170.75,8.771 171.057,9.529 171.156,10.347C171.254,11.166 171.303,12.599 171.303,14.646L171.303,18.048ZM166.132,11.514C166.132,10.589 166.081,9.997 165.979,9.74C165.877,9.482 165.666,9.353 165.346,9.353C165.076,9.353 164.869,9.457 164.726,9.666C164.583,9.875 164.511,10.491 164.511,11.514L164.511,20.8C164.511,21.954 164.558,22.666 164.652,22.937C164.747,23.207 164.966,23.342 165.309,23.342C165.662,23.342 165.887,23.186 165.985,22.875C166.083,22.564 166.132,21.823 166.132,20.652L166.132,11.514Z" style="fill:white;fill-rule:nonzero;"/>
                <path d="M184.777,6.405L184.777,26.29L180.244,26.29L177.555,17.25L177.555,26.29L173.231,26.29L173.231,6.405L177.555,6.405L180.453,15.359L180.453,6.405L184.777,6.405Z" style="fill:white;fill-rule:nonzero;"/>
                <rect x="186.852" y="6.405" width="5.171" height="19.885" style="fill:white;fill-rule:nonzero;"/>
                <path d="M206.172,15.076L201.001,15.076L201.001,11.613C201.001,10.605 200.946,9.977 200.835,9.727C200.725,9.478 200.481,9.353 200.105,9.353C199.679,9.353 199.409,9.504 199.294,9.807C199.179,10.11 199.122,10.765 199.122,11.772L199.122,21.008C199.122,21.974 199.179,22.605 199.294,22.9C199.409,23.195 199.666,23.342 200.068,23.342C200.453,23.342 200.704,23.195 200.823,22.9C200.942,22.605 201.001,21.913 201.001,20.824L201.001,18.331L206.172,18.331L206.172,19.105C206.172,21.16 206.027,22.617 205.736,23.477C205.445,24.337 204.802,25.09 203.808,25.737C202.813,26.384 201.587,26.707 200.129,26.707C198.614,26.707 197.366,26.433 196.383,25.884C195.401,25.336 194.75,24.576 194.43,23.606C194.111,22.636 193.951,21.176 193.951,19.227L193.951,13.418C193.951,11.985 194,10.91 194.099,10.194C194.197,9.478 194.49,8.788 194.977,8.124C195.464,7.461 196.139,6.939 197.003,6.558C197.867,6.178 198.86,5.987 199.982,5.987C201.505,5.987 202.762,6.282 203.752,6.872C204.743,7.461 205.394,8.196 205.705,9.076C206.016,9.957 206.172,11.326 206.172,13.185L206.172,15.076Z" style="fill:white;fill-rule:nonzero;"/>
            </g>
            <g transform="matrix(0.613084,0,0,0.515402,-110.071,5.20172)">
                <path d="M220,0L181.741,0" style="fill:none;stroke:rgb(176,176,176);stroke-width:1.82px;"/>
            </g>
            <g transform="matrix(0.613084,0,0,0.515402,-21.2649,24.7509)">
                <path d="M220,0L181.741,0" style="fill:none;stroke:white;stroke-width:1.82px;"/>
            </g>
        </g>
    </g>
</svg>
